RobotoExtremo-opsz144-wght900-wdth100-YOPQ135.ufo
<glyph name="numbersign" format="2">
  <advance width="1612"/>
  <unicode hex="0023"/>
  <outline>
    <contour>
      <point x="95.0" y="-20.0" type="line"/>
      <point x="500.0" y="1476.0" type="line"/>
      <point x="968.0" y="1476.0" type="line"/>
      <point x="564.0" y="-20.0" type="line"/>
    </contour>
    <contour>
      <point x="644.0" y="-20.0" type="line"/>
      <point x="1048.0" y="1476.0" type="line"/>
      <point x="1517.0" y="1476.0" type="line"/>
      <point x="1113.0" y="-20.0" type="line"/>
    </contour>
    <contour>
      <point x="12.0" y="288.32142857142856" type="line"/>
      <point x="12.0" y="652.3214285714286" type="line"/>
      <point x="1534.0" y="652.3214285714286" type="line"/>
      <point x="1534.0" y="288.32142857142856" type="line"/>
    </contour>
    <contour>
      <point x="84.69642857142858" y="796.9821428571429" type="line"/>
      <point x="84.69642857142858" y="1160.982142857143" type="line"/>
      <point x="1606.6964285714287" y="1160.982142857143" type="line"/>
      <point x="1606.6964285714287" y="796.9821428571429" type="line"/>
    </contour>
  </outline>
</glyph>
<glyph name="ampersand" format="2">
  <advance width="1618"/>
  <unicode hex="0026"/>
  <outline>
    <contour>
      <point x="10.0" y="380.0" type="qcurve" smooth="yes"/>
      <point x="10.0" y="543.6785714285714"/>
      <point x="210.0" y="742.3928571428571"/>
      <point x="394.0" y="835.6428571428571" type="qcurve" smooth="yes"/>
      <point x="572.0" y="935.0" type="line" smooth="yes"/>
      <point x="680.0" y="987.9821428571429"/>
      <point x="762.0" y="1093.9464285714287"/>
      <point x="762.0" y="1138.9285714285713" type="qcurve" smooth="yes"/>
      <point x="762.0" y="1169.5714285714287"/>
      <point x="745.0" y="1200.0714285714287"/>
      <point x="722.0" y="1200.0714285714287" type="qcurve" smooth="yes"/>
      <point x="699.0" y="1200.0714285714287"/>
      <point x="678.0" y="1170.5714285714287"/>
      <point x="678.0" y="1141.9285714285713" type="qcurve" smooth="yes"/>
      <point x="678.0" y="1074.9464285714284"/>
      <point x="804.0" y="957.7857142857143"/>
      <point x="909.0" y="841.3571428571429" type="qcurve" smooth="yes"/>
      <point x="1614.0" y="0.0" type="line"/>
      <point x="1001.0" y="0.0" type="line"/>
      <point x="390.0" y="691.9285714285714" type="line" smooth="yes"/>
      <point x="270.0" y="834.9464285714286"/>
      <point x="156.0" y="1013.9285714285714"/>
      <point x="156.0" y="1119.9285714285713" type="qcurve" smooth="yes"/>
      <point x="156.0" y="1292.625"/>
      <point x="434.0" y="1486.0"/>
      <point x="733.0" y="1486.0" type="qcurve" smooth="yes"/>
      <point x="1024.0" y="1486.0"/>
      <point x="1278.0" y="1304.625"/>
      <point x="1278.0" y="1122.9285714285713" type="qcurve" smooth="yes"/>
      <point x="1278.0" y="975.5892857142857"/>
      <point x="1079.0" y="777.9107142857143"/>
      <point x="910.0" y="686.5714285714286" type="qcurve" smooth="yes"/>
      <point x="780.0" y="611.2142857142857" type="line" smooth="yes"/>
      <point x="596.0" y="520.571489966689"/>
      <point x="534.0" y="476.98214285714283"/>
      <point x="534.0" y="442.35714285714283" type="qcurve" smooth="yes"/>
      <point x="534.0" y="395.73214285714283"/>
      <point x="602.0" y="365.92857142857144"/>
      <point x="655.0" y="365.92857142857144" type="qcurve" smooth="yes"/>
      <point x="757.0" y="365.92857142857144"/>
      <point x="1066.0" y="544.3928571428571"/>
      <point x="1105.0" y="762.0" type="qcurve"/>
      <point x="1617.0" y="762.0" type="line"/>
      <point x="1617.0" y="468.0"/>
      <point x="1009.0" y="-20.0"/>
      <point x="647.0" y="-20.0" type="qcurve" smooth="yes"/>
      <point x="310.0" y="-20.0"/>
      <point x="10.0" y="197.32142857142858"/>
    </contour>
  </outline>
</glyph>
<glyph name="three" format="2">
  <advance width="1333"/>
  <unicode hex="0033"/>
  <outline>
    <contour>
      <point x="16.0" y="463.7142857142857" type="qcurve" smooth="yes"/>
      <point x="16.0" y="589.7142857142858" type="line"/>
      <point x="593.0" y="589.7142857142858" type="line"/>
      <point x="593.0" y="489.7142857142857" type="line" smooth="yes"/>
      <point x="594.0" y="433.0187969924812"/>
      <point x="630.0" y="389.0"/>
      <point x="666.0" y="389.0" type="qcurve" smooth="yes"/>
      <point x="699.0" y="389.0"/>
      <point x="735.0" y="425.8646616541353"/>
      <point x="735.0" y="490.7142857142857" type="qcurve" smooth="yes"/>
      <point x="735.0" y="544.0676691729324"/>
      <point x="699.0" y="577.3928571428571"/>
      <point x="655.0" y="577.3928571428571" type="qcurve" smooth="yes"/>
      <point x="491.0" y="577.3928571428571" type="line"/>
      <point x="491.0" y="910.4642857142857" type="line"/>
      <point x="651.0" y="910.4642857142857" type="line" smooth="yes"/>
      <point x="680.0" y="910.4642857142857"/>
      <point x="718.0" y="946.6041666666666"/>
      <point x="718.0" y="990.9642857142858" type="qcurve" smooth="yes"/>
      <point x="718.0" y="1037.0004892367906"/>
      <point x="684.0" y="1065.0"/>
      <point x="652.0" y="1065.0" type="qcurve" smooth="yes"/>
      <point x="619.0" y="1065.0"/>
      <point x="596.0" y="1013.9591222030981"/>
      <point x="596.0" y="966.2857142857142" type="qcurve" smooth="yes"/>
      <point x="596.0" y="900.2857142857143" type="line"/>
      <point x="36.0" y="900.2857142857143" type="line"/>
      <point x="36.0" y="986.2857142857142" type="line" smooth="yes"/>
      <point x="33.0" y="1222.8392857142858"/>
      <point x="388.0" y="1476.0"/>
      <point x="676.0" y="1476.0" type="qcurve" smooth="yes"/>
      <point x="973.0" y="1476.0"/>
      <point x="1298.0" y="1250.0535714285713"/>
      <point x="1298.0" y="1068.642857142857" type="qcurve" smooth="yes"/>
      <point x="1298.0" y="968.25"/>
      <point x="1204.0" y="818.8701672797273"/>
      <point x="1108.0" y="767.0" type="qcurve"/>
      <point x="1108.0" y="763.0" type="line"/>
      <point x="1185.0" y="737.1686805655108"/>
      <point x="1327.0" y="580.0493297025555"/>
      <point x="1327.0" y="442.0892857142857" type="qcurve" smooth="yes"/>
      <point x="1327.0" y="248.8032942667089"/>
      <point x="961.0" y="-20.0"/>
      <point x="666.0" y="-20.0" type="qcurve" smooth="yes"/>
      <point x="371.0" y="-20.0"/>
      <point x="16.0" y="232.89285714285714"/>
    </contour>
  </outline>
</glyph>
<glyph name="six" format="2">
  <advance width="1333"/>
  <unicode hex="0036"/>
  <outline>
    <contour>
      <point x="25.0" y="581.0" type="qcurve" smooth="yes"/>
      <point x="25.0" y="706.0" type="line" smooth="yes"/>
      <point x="25.0" y="1060.0"/>
      <point x="527.0" y="1476.0"/>
      <point x="994.0" y="1476.0" type="qcurve" smooth="yes"/>
      <point x="1152.0" y="1476.0" type="line"/>
      <point x="1152.0" y="975.3214285714287" type="line"/>
      <point x="1020.0" y="975.3214285714287" type="line" smooth="yes"/>
      <point x="811.0" y="975.3214285714287"/>
      <point x="616.0" y="841.0304154302671"/>
      <point x="616.0" y="548.0" type="qcurve" smooth="yes"/>
      <point x="616.0" y="528.0" type="line" smooth="yes"/>
      <point x="616.0" y="410.38655462184875"/>
      <point x="648.0" y="388.0"/>
      <point x="671.0" y="388.0" type="qcurve" smooth="yes"/>
      <point x="695.0" y="388.0"/>
      <point x="723.0" y="408.5955038265306"/>
      <point x="723.0" y="540.6785714285714" type="qcurve" smooth="yes"/>
      <point x="723.0" y="590.4932432432432"/>
      <point x="703.0" y="635.3571428571429"/>
      <point x="675.0" y="635.3571428571429" type="qcurve" smooth="yes"/>
      <point x="649.0" y="635.3571428571429"/>
      <point x="616.0" y="612.4932432432432"/>
      <point x="616.0" y="585.6785714285714" type="qcurve"/>
      <point x="570.0" y="586.6785714285714" type="line"/>
      <point x="570.0" y="774.8763066202091"/>
      <point x="791.0" y="958.3571428571429"/>
      <point x="930.0" y="958.3571428571429" type="qcurve" smooth="yes"/>
      <point x="1098.0" y="958.3571428571429"/>
      <point x="1316.0" y="741.8763066202091"/>
      <point x="1316.0" y="519.6785714285714" type="qcurve" smooth="yes"/>
      <point x="1316.0" y="262.4856853672643"/>
      <point x="937.0" y="-20.0"/>
      <point x="667.0" y="-20.0" type="qcurve" smooth="yes"/>
      <point x="368.0" y="-20.0"/>
      <point x="25.0" y="280.0"/>
    </contour>
  </outline>
</glyph>
<glyph name="equal" format="2">
  <advance width="1174"/>
  <unicode hex="003D"/>
  <outline>
    <contour>
      <point x="81.71428571428572" y="129.73214285714283" type="line"/>
      <point x="81.71428571428572" y="644.1071428571429" type="line"/>
      <point x="1092.392857142857" y="644.1071428571429" type="line"/>
      <point x="1092.392857142857" y="129.73214285714283" type="line"/>
    </contour>
    <contour>
      <point x="81.71428571428572" y="717.7857142857143" type="line"/>
      <point x="81.71428571428572" y="1232.1607142857142" type="line"/>
      <point x="1092.392857142857" y="1232.1607142857142" type="line"/>
      <point x="1092.392857142857" y="717.7857142857143" type="line"/>
    </contour>
  </outline>
</glyph>
<glyph name="E" format="2">
  <advance width="1226"/>
  <unicode hex="0045"/>
  <anchor x="626.0" y="1398.7857142857142" name="top"/>
  <outline>
    <contour>
      <point x="40.0" y="0.0" type="line"/>
      <point x="40.0" y="1456.0" type="line"/>
      <point x="1186.0" y="1456.0" type="line"/>
      <point x="1186.0" y="960.0" type="line"/>
      <point x="610.0" y="960.0" type="line"/>
      <point x="610.0" y="937.0" type="line"/>
      <point x="1108.0" y="937.0" type="line"/>
      <point x="1108.0" y="511.0" type="line"/>
      <point x="610.0" y="511.0" type="line"/>
      <point x="610.0" y="476.0" type="line"/>
      <point x="1206.0" y="476.0" type="line"/>
      <point x="1206.0" y="0.0" type="line"/>
    </contour>
  </outline>
</glyph>
<glyph name="K" format="2">
  <advance width="1429"/>
  <unicode hex="004B"/>
  <outline>
    <contour>
      <point x="40.0" y="0.0" type="line"/>
      <point x="40.0" y="1456.0" type="line"/>
      <point x="640.0" y="1456.0" type="line"/>
      <point x="640.0" y="1123.892857142857" type="line"/>
      <point x="846.6428571428571" y="1456.0" type="line"/>
      <point x="1466.4285714285713" y="1456.0" type="line"/>
      <point x="640.0" y="376.08928571428567" type="line"/>
      <point x="640.0" y="0.0" type="line"/>
    </contour>
    <contour>
      <point x="873.0" y="0.0" type="line"/>
      <point x="558.0" y="596.0" type="line"/>
      <point x="906.0" y="1063.0" type="line"/>
      <point x="1536.0" y="0.0" type="line"/>
    </contour>
  </outline>
</glyph>
<glyph name="O" format="2">
  <advance width="1428"/>
  <unicode hex="004F"/>
  <anchor x="712.0" y="1432.0" name="top"/>
  <outline>
    <contour>
      <point x="24.0" y="689.0" type="qcurve" smooth="yes"/>
      <point x="24.0" y="767.0" type="line" smooth="yes"/>
      <point x="24.0" y="1136.0"/>
      <point x="415.0" y="1476.0"/>
      <point x="714.0" y="1476.0" type="qcurve" smooth="yes"/>
      <point x="1014.0" y="1476.0"/>
      <point x="1404.0" y="1136.0"/>
      <point x="1404.0" y="767.0" type="qcurve" smooth="yes"/>
      <point x="1404.0" y="689.0" type="line" smooth="yes"/>
      <point x="1404.0" y="320.0"/>
      <point x="1014.0" y="-20.0"/>
      <point x="714.0" y="-20.0" type="qcurve" smooth="yes"/>
      <point x="415.0" y="-20.0"/>
      <point x="24.0" y="320.0"/>
    </contour>
    <contour>
      <point x="652.0" y="479.0" type="line" smooth="yes"/>
      <point x="652.0" y="430.51511991657975"/>
      <point x="680.0" y="394.07142857142856"/>
      <point x="714.0" y="394.07142857142856" type="qcurve" smooth="yes"/>
      <point x="748.0" y="394.07142857142856"/>
      <point x="776.0" y="430.51511991657975"/>
      <point x="776.0" y="479.0" type="qcurve" smooth="yes"/>
      <point x="776.0" y="973.0" type="line" smooth="yes"/>
      <point x="776.0" y="1018.4848800834202"/>
      <point x="748.0" y="1051.9285714285713"/>
      <point x="714.0" y="1051.9285714285713" type="qcurve" smooth="yes"/>
      <point x="680.0" y="1051.9285714285713"/>
      <point x="652.0" y="1018.4848800834202"/>
      <point x="652.0" y="973.0" type="qcurve" smooth="yes"/>
    </contour>
  </outline>
</glyph>
<glyph name="Q" format="2">
  <advance width="1428"/>
  <unicode hex="0051"/>
  <outline>
    <contour>
      <point x="24.0" y="689.0" type="qcurve" smooth="yes"/>
      <point x="24.0" y="767.0" type="line" smooth="yes"/>
      <point x="24.0" y="1136.0"/>
      <point x="415.0" y="1476.0"/>
      <point x="714.0" y="1476.0" type="qcurve" smooth="yes"/>
      <point x="1014.0" y="1476.0"/>
      <point x="1404.0" y="1136.0"/>
      <point x="1404.0" y="767.0" type="qcurve" smooth="yes"/>
      <point x="1404.0" y="689.0" type="line" smooth="yes"/>
      <point x="1404.0" y="320.0"/>
      <point x="1014.0" y="-20.0"/>
      <point x="714.0" y="-20.0" type="qcurve" smooth="yes"/>
      <point x="415.0" y="-20.0"/>
      <point x="24.0" y="320.0"/>
    </contour>
    <contour>
      <point x="652.0" y="479.0" type="line" smooth="yes"/>
      <point x="652.0" y="430.4642857142857"/>
      <point x="680.0" y="394.07142857142856"/>
      <point x="714.0" y="394.07142857142856" type="qcurve" smooth="yes"/>
      <point x="748.0" y="394.07142857142856"/>
      <point x="776.0" y="430.4642857142857"/>
      <point x="776.0" y="479.0" type="qcurve" smooth="yes"/>
      <point x="776.0" y="973.0" type="line" smooth="yes"/>
      <point x="776.0" y="1018.5357142857142"/>
      <point x="748.0" y="1051.9285714285713"/>
      <point x="714.0" y="1051.9285714285713" type="qcurve" smooth="yes"/>
      <point x="680.0" y="1051.9285714285713"/>
      <point x="652.0" y="1018.5357142857142"/>
      <point x="652.0" y="973.0" type="qcurve" smooth="yes"/>
    </contour>
    <contour>
      <point x="1027.0" y="-261.0" type="line"/>
      <point x="601.0" y="164.0" type="line"/>
      <point x="906.0" y="507.0" type="line"/>
      <point x="1335.0" y="82.99999999999999" type="line"/>
    </contour>
  </outline>
</glyph>
<glyph name="W" format="2">
  <advance width="2194"/>
  <unicode hex="0057"/>
  <outline>
    <contour>
      <point x="328.0" y="0.0" type="line"/>
      <point x="-30.0" y="1456.0" type="line"/>
      <point x="542.0" y="1456.0" type="line"/>
      <point x="685.625" y="855.5178571428571" type="line" smooth="yes"/>
      <point x="689.2321428571429" y="839.0178571428571"/>
      <point x="695.3035714285714" y="819.8392857142858"/>
      <point x="697.0357142857142" y="810.0" type="qcurve"/>
      <point x="698.0357142857142" y="810.0" type="line"/>
      <point x="699.5" y="817.3035714285714"/>
      <point x="707.1071428571429" y="841.6964285714286"/>
      <point x="710.7142857142858" y="857.3928571428571" type="qcurve" smooth="yes"/>
      <point x="846.7321428571429" y="1456.0" type="line"/>
      <point x="1354.0" y="1456.0" type="line"/>
      <point x="1512.0892857142858" y="855.25" type="line" smooth="yes"/>
      <point x="1513.357142857143" y="849.4464285714286"/>
      <point x="1522.0357142857142" y="820.9107142857142"/>
      <point x="1524.767857142857" y="811.3392857142858" type="qcurve"/>
      <point x="1525.767857142857" y="811.3392857142858" type="line"/>
      <point x="1527.5" y="819.9107142857142"/>
      <point x="1533.107142857143" y="843.8392857142858"/>
      <point x="1535.642857142857" y="855.7857142857142" type="qcurve" smooth="yes"/>
      <point x="1660.0" y="1456.0" type="line"/>
      <point x="2224.392857142857" y="1456.0" type="line"/>
      <point x="1866.392857142857" y="0.0" type="line"/>
      <point x="1281.0" y="0.0" type="line"/>
      <point x="1120.375" y="579.3035714285716" type="line" smooth="yes"/>
      <point x="1117.3035714285716" y="590.0535714285713"/>
      <point x="1108.357142857143" y="626.2321428571428"/>
      <point x="1106.357142857143" y="638.5535714285714" type="qcurve"/>
      <point x="1104.357142857143" y="638.5535714285714" type="line"/>
      <point x="1102.357142857143" y="626.2321428571428"/>
      <point x="1095.8214285714284" y="592.392857142857"/>
      <point x="1092.2142857142858" y="578.7678571428572" type="qcurve" smooth="yes"/>
      <point x="931.8571428571429" y="0.0" type="line"/>
    </contour>
  </outline>
</glyph>
<glyph name="backslash" format="2">
  <advance width="969"/>
  <unicode hex="005C"/>
  <outline>
    <contour>
      <point x="-20.0" y="1456.0" type="line"/>
      <point x="476.0" y="1456.0" type="line"/>
      <point x="989.0" y="-125.0" type="line"/>
      <point x="494.0" y="-125.0" type="line"/>
    </contour>
  </outline>
</glyph>
<glyph name="b" format="2">
  <advance width="1291"/>
  <unicode hex="0062"/>
  <outline>
    <contour>
      <point x="18.0" y="0.0" type="line"/>
      <point x="18.0" y="1458.0" type="line"/>
      <point x="595.0" y="1458.0" type="line"/>
      <point x="595.0" y="805.0" type="line"/>
      <point x="642.0" y="869.8035714285714"/>
      <point x="779.0" y="944.0"/>
      <point x="879.0" y="944.0" type="qcurve" smooth="yes"/>
      <point x="1051.0" y="944.0"/>
      <point x="1281.0" y="684.0"/>
      <point x="1281.0" y="484.0" type="qcurve" smooth="yes"/>
      <point x="1281.0" y="452.0" type="line" smooth="yes"/>
      <point x="1281.0" y="252.0"/>
      <point x="1041.0" y="-20.0"/>
      <point x="869.0" y="-20.0" type="qcurve" smooth="yes"/>
      <point x="769.0" y="-20.0"/>
      <point x="634.0" y="30.464285714285715"/>
      <point x="591.0" y="85.0" type="qcurve"/>
      <point x="590.0" y="85.0" type="line"/>
      <point x="590.0" y="0.0" type="line"/>
    </contour>
    <contour>
      <point x="595.0" y="427.60714285714283" type="line"/>
      <point x="602.0" y="407.60714285714283"/>
      <point x="630.0" y="376.6071428571429"/>
      <point x="653.0" y="376.6071428571429" type="qcurve" smooth="yes"/>
      <point x="681.0" y="376.6071428571429"/>
      <point x="710.0" y="422.39285714285717"/>
      <point x="710.0" y="456.0" type="qcurve" smooth="yes"/>
      <point x="710.0" y="465.0" type="line" smooth="yes"/>
      <point x="710.0" y="498.6071428571429"/>
      <point x="681.0" y="537.3928571428571"/>
      <point x="651.0" y="537.3928571428571" type="qcurve" smooth="yes"/>
      <point x="630.0" y="537.3928571428571"/>
      <point x="602.0" y="506.3928571428571"/>
      <point x="595.0" y="486.3928571428571" type="qcurve"/>
    </contour>
  </outline>
</glyph>
<glyph name="c" format="2">
  <advance width="1171"/>
  <unicode hex="0063"/>
  <anchor x="624.0" y="0" name="bottom"/>
  <outline>
    <contour>
      <point x="10.0" y="445.0" type="qcurve" smooth="yes"/>
      <point x="10.0" y="479.0" type="line" smooth="yes"/>
      <point x="10.0" y="700.0"/>
      <point x="337.0" y="952.0"/>
      <point x="620.0" y="952.0" type="qcurve" smooth="yes"/>
      <point x="887.0" y="952.0"/>
      <point x="1163.0" y="705.4772978959026"/>
      <point x="1176.0" y="507.28571428571433" type="qcurve" smooth="yes"/>
      <point x="1178.0" y="478.28571428571433" type="line"/>
      <point x="693.0" y="478.28571428571433" type="line"/>
      <point x="693.0" y="488.28571428571433" type="line" smooth="yes"/>
      <point x="693.0" y="512.1156832298136"/>
      <point x="670.0" y="534.0714285714286"/>
      <point x="643.0" y="534.0714285714286" type="qcurve" smooth="yes"/>
      <point x="616.0" y="534.0714285714286"/>
      <point x="589.0" y="520.8470176730485"/>
      <point x="589.0" y="501.0" type="qcurve" smooth="yes"/>
      <point x="589.0" y="425.0" type="line" smooth="yes"/>
      <point x="589.0" y="397.1529823269514"/>
      <point x="615.0" y="378.92857142857144"/>
      <point x="643.0" y="378.92857142857144" type="qcurve" smooth="yes"/>
      <point x="671.0" y="378.92857142857144"/>
      <point x="694.0" y="398.88431677018633"/>
      <point x="694.0" y="413.7142857142857" type="qcurve" smooth="yes"/>
      <point x="694.0" y="426.7142857142857" type="line"/>
      <point x="1178.0" y="426.7142857142857" type="line"/>
      <point x="1177.0" y="395.7142857142857" type="line" smooth="yes"/>
      <point x="1170.0" y="205.52270210409745"/>
      <point x="894.0" y="-27.0"/>
      <point x="625.0" y="-27.0" type="qcurve" smooth="yes"/>
      <point x="343.0" y="-27.0"/>
      <point x="10.0" y="226.0"/>
    </contour>
  </outline>
</glyph>
<glyph name="d" format="2">
  <advance width="1292"/>
  <unicode hex="0064"/>
  <outline>
    <contour>
      <point x="10.0" y="442.0" type="qcurve" smooth="yes"/>
      <point x="10.0" y="474.0" type="line" smooth="yes"/>
      <point x="10.0" y="674.0"/>
      <point x="225.0" y="934.0"/>
      <point x="406.0" y="934.0" type="qcurve" smooth="yes"/>
      <point x="516.0" y="934.0"/>
      <point x="669.0" y="866.8035714285714"/>
      <point x="712.0" y="810.0" type="qcurve"/>
      <point x="712.0" y="1458.0" type="line"/>
      <point x="1274.0" y="1458.0" type="line"/>
      <point x="1274.0" y="0.0" type="line"/>
      <point x="716.0" y="0.0" type="line"/>
      <point x="716.0" y="133.0" type="line"/>
      <point x="715.0" y="133.0" type="line"/>
      <point x="672.0" y="69.46428571428572"/>
      <point x="515.0" y="-20.0"/>
      <point x="406.0" y="-20.0" type="qcurve" smooth="yes"/>
      <point x="220.0" y="-20.0"/>
      <point x="10.0" y="242.0"/>
    </contour>
    <contour>
      <point x="581.0" y="451.0" type="line" smooth="yes"/>
      <point x="581.0" y="417.39285714285717"/>
      <point x="610.0" y="375.6071428571429"/>
      <point x="641.0" y="375.6071428571429" type="qcurve" smooth="yes"/>
      <point x="662.0" y="375.6071428571429"/>
      <point x="691.0" y="407.60714285714283"/>
      <point x="697.0" y="427.60714285714283" type="qcurve"/>
      <point x="697.0" y="486.3928571428571" type="line"/>
      <point x="691.0" y="506.3928571428571"/>
      <point x="662.0" y="538.3928571428571"/>
      <point x="641.0" y="538.3928571428571" type="qcurve" smooth="yes"/>
      <point x="610.0" y="538.3928571428571"/>
      <point x="581.0" y="494.6071428571429"/>
      <point x="581.0" y="461.0" type="qcurve" smooth="yes"/>
    </contour>
  </outline>
</glyph>
<glyph name="o" format="2">
  <advance width="1302"/>
  <unicode hex="006F"/>
  <anchor x="648.0" y="914.0" name="top"/>
  <outline>
    <contour>
      <point x="10.0" y="445.0" type="qcurve" smooth="yes"/>
      <point x="10.0" y="478.0" type="line" smooth="yes"/>
      <point x="10.0" y="689.0"/>
      <point x="360.0" y="952.0"/>
      <point x="651.0" y="952.0" type="qcurve" smooth="yes"/>
      <point x="943.0" y="952.0"/>
      <point x="1292.0" y="689.0"/>
      <point x="1292.0" y="478.0" type="qcurve" smooth="yes"/>
      <point x="1292.0" y="445.0" type="line" smooth="yes"/>
      <point x="1292.0" y="233.0"/>
      <point x="943.0" y="-27.0"/>
      <point x="651.0" y="-27.0" type="qcurve" smooth="yes"/>
      <point x="359.0" y="-27.0"/>
      <point x="10.0" y="233.0"/>
    </contour>
    <contour>
      <point x="589.0" y="501.0" type="qcurve" smooth="yes"/>
      <point x="589.0" y="426.0" type="line" smooth="yes"/>
      <point x="589.0" y="405.39285714285717"/>
      <point x="618.0" y="381.6071428571429"/>
      <point x="647.0" y="381.6071428571429" type="qcurve" smooth="yes"/>
      <point x="676.0" y="381.6071428571429"/>
      <point x="705.0" y="405.39285714285717"/>
      <point x="705.0" y="426.0" type="qcurve" smooth="yes"/>
      <point x="705.0" y="501.0" type="line" smooth="yes"/>
      <point x="705.0" y="517.6071428571429"/>
      <point x="676.0" y="537.3928571428571"/>
      <point x="647.0" y="537.3928571428571" type="qcurve" smooth="yes"/>
      <point x="618.0" y="537.3928571428571"/>
      <point x="589.0" y="517.6071428571429"/>
    </contour>
  </outline>
</glyph>
<glyph name="u" format="2">
  <advance width="1272"/>
  <unicode hex="0075"/>
  <anchor x="636.0" y="914.0" name="top"/>
  <outline>
    <contour>
      <point x="12.0" y="338.5357142857143" type="qcurve" smooth="yes"/>
      <point x="12.0" y="914.0" type="line"/>
      <point x="592.0" y="914.0" type="line"/>
      <point x="592.0" y="448.5357142857143" type="line" smooth="yes"/>
      <point x="592.0" y="423.5357142857143"/>
      <point x="612.0" y="398.5357142857143"/>
      <point x="628.0" y="398.5357142857143" type="qcurve" smooth="yes"/>
      <point x="644.0" y="398.5357142857143"/>
      <point x="667.0" y="424.5357142857143"/>
      <point x="674.0" y="445.5357142857143" type="qcurve"/>
      <point x="674.0" y="914.0" type="line"/>
      <point x="1254.0" y="914.0" type="line"/>
      <point x="1254.0" y="0.0" type="line"/>
      <point x="676.0" y="0.0" type="line"/>
      <point x="676.0" y="120.0" type="line"/>
      <point x="675.0" y="120.0" type="line"/>
      <point x="650.0" y="57.92857142857143"/>
      <point x="493.0" y="-29.0"/>
      <point x="359.0" y="-29.0" type="qcurve" smooth="yes"/>
      <point x="207.0" y="-29.0"/>
      <point x="12.0" y="144.92857142857142"/>
    </contour>
  </outline>
</glyph>
<glyph name="x" format="2">
  <advance width="1197"/>
  <unicode hex="0078"/>
  <outline>
    <contour>
      <point x="-22.69642857142857" y="0.0" type="line"/>
      <point x="348.30357142857144" y="584.0" type="line"/>
      <point x="509.625" y="584.0" type="line"/>
      <point x="719.625" y="914.0" type="line"/>
      <point x="1210.6964285714284" y="914.0" type="line"/>
      <point x="851.6964285714286" y="333.0" type="line"/>
      <point x="652.375" y="333.0" type="line"/>
      <point x="468.375" y="0.0" type="line"/>
    </contour>
    <contour>
      <point x="-6.0" y="914.0" type="line"/>
      <point x="584.0" y="914.0" type="line"/>
      <point x="791.0" y="557.0" type="line"/>
      <point x="849.0" y="557.0" type="line"/>
      <point x="1213.0" y="0.0" type="line"/>
      <point x="623.0" y="0.0" type="line"/>
      <point x="398.0" y="377.0" type="line"/>
      <point x="345.0" y="377.0" type="line"/>
    </contour>
  </outline>
</glyph>
<glyph name="y" format="2">
  <advance width="1265"/>
  <unicode hex="0079"/>
  <anchor x="651.0" y="914.0" name="top"/>
  <outline>
    <contour>
      <point x="-55.0" y="-404.0" type="qcurve"/>
      <point x="6.0" y="-36.21428571428572" type="line"/>
      <point x="48.0" y="-41.48214285714286"/>
      <point x="130.0" y="-47.21428571428572"/>
      <point x="173.0" y="-47.21428571428572" type="qcurve" smooth="yes"/>
      <point x="267.0" y="-47.21428571428572"/>
      <point x="348.64285714285717" y="-14.80357142857143"/>
      <point x="363.57142857142856" y="14.464285714285715" type="qcurve"/>
      <point x="363.57142857142856" y="15.464285714285714" type="line"/>
      <point x="-12.67857142857143" y="914.0" type="line"/>
      <point x="535.3214285714286" y="914.0" type="line"/>
      <point x="627.25" y="610.0" type="line" smooth="yes"/>
      <point x="629.3035714285714" y="601.5"/>
      <point x="634.8928571428571" y="589.4821428571429"/>
      <point x="639.0892857142858" y="579.7857142857142" type="qcurve"/>
      <point x="639.0892857142858" y="579.7857142857142" type="line"/>
      <point x="644.0178571428571" y="589.4821428571429"/>
      <point x="648.3392857142858" y="602.5714285714286"/>
      <point x="652.7321428571429" y="614.75" type="qcurve" smooth="yes"/>
      <point x="757.9285714285714" y="914.0" type="line"/>
      <point x="1280.357142857143" y="914.0" type="line"/>
      <point x="955.0" y="96.0" type="line" smooth="yes"/>
      <point x="825.6607142857143" y="-231.33928571428572"/>
      <point x="537.0" y="-436.0"/>
      <point x="309.0" y="-436.0" type="qcurve" smooth="yes"/>
      <point x="168.0" y="-436.0"/>
      <point x="-2.0" y="-417.5357142857143"/>
    </contour>
  </outline>
</glyph>
<glyph name="asciitilde" format="2">
  <advance width="1170"/>
  <unicode hex="007E"/>
  <outline>
    <contour>
      <point x="9.0" y="265.64285714285717" type="qcurve"/>
      <point x="9.0" y="829.0357142857143" type="line"/>
      <point x="56.0" y="904.0357142857143"/>
      <point x="194.0" y="973.0357142857143"/>
      <point x="285.0" y="973.0357142857143" type="qcurve" smooth="yes"/>
      <point x="352.0" y="973.0357142857143"/>
      <point x="515.0" y="939.0357142857143"/>
      <point x="611.0" y="905.0357142857143" type="qcurve" smooth="yes"/>
      <point x="709.0" y="870.0357142857143"/>
      <point x="858.0" y="830.0357142857143"/>
      <point x="918.0" y="830.0357142857143" type="qcurve" smooth="yes"/>
      <point x="986.9999999999999" y="830.0357142857143"/>
      <point x="1102.0" y="892.0357142857143"/>
      <point x="1162.0" y="961.0357142857143" type="qcurve"/>
      <point x="1162.0" y="347.6428571428571" type="line"/>
      <point x="1127.0" y="307.6428571428571"/>
      <point x="1013.0" y="253.64285714285717"/>
      <point x="921.0" y="253.64285714285717" type="qcurve" smooth="yes"/>
      <point x="853.0" y="253.64285714285717"/>
      <point x="670.0" y="289.64285714285717"/>
      <point x="551.0" y="326.6428571428571" type="qcurve" smooth="yes"/>
      <point x="460.0" y="355.6428571428571"/>
      <point x="316.99999999999994" y="384.6428571428571"/>
      <point x="262.0" y="384.6428571428571" type="qcurve" smooth="yes"/>
      <point x="162.0" y="384.6428571428571"/>
      <point x="48.0" y="312.6428571428571"/>
    </contour>
  </outline>
</glyph>
<glyph name="degree" format="2">
  <advance width="765"/>
  <unicode hex="00B0"/>
  <outline>
    <contour>
      <point x="131.0" y="1225.0357142857142" type="qcurve"/>
      <point x="131.0" y="1339.875"/>
      <point x="282.0" y="1490.392857142857"/>
      <point x="386.0" y="1490.392857142857" type="qcurve" smooth="yes"/>
      <point x="489.0" y="1490.392857142857"/>
      <point x="637.0" y="1339.5852878464818"/>
      <point x="637.0" y="1225.0357142857142" type="qcurve" smooth="yes"/>
      <point x="637.0" y="1109.9397654584222"/>
      <point x="488.98507462686564" y="960.0"/>
      <point x="386.0" y="960.0" type="qcurve" smooth="yes"/>
      <point x="282.2686567164179" y="960.0"/>
      <point x="131.0" y="1109.4642857142858"/>
    </contour>
    <contour>
      <point x="255.0" y="1224.232142857143" type="qcurve"/>
      <point x="255.0" y="1169.0682302771856"/>
      <point x="332.1966950959488" y="1101.392857142857"/>
      <point x="386.0" y="1101.392857142857" type="qcurve" smooth="yes"/>
      <point x="439.8033049040512" y="1101.392857142857"/>
      <point x="513.0" y="1169.0682302771856"/>
      <point x="513.0" y="1224.232142857143" type="qcurve" smooth="yes"/>
      <point x="513.0" y="1280.2102878464818"/>
      <point x="439.8033049040512" y="1346.3214285714287"/>
      <point x="386.0" y="1346.3214285714287" type="qcurve" smooth="yes"/>
      <point x="332.1966950959488" y="1346.3214285714287"/>
      <point x="255.0" y="1280.2102878464818"/>
    </contour>
  </outline>
</glyph>
<glyph name="threesuperior" format="2">
  <advance width="751"/>
  <unicode hex="00B3"/>
  <outline>
    <contour>
      <point x="23.0" y="977.3571428571429" type="qcurve"/>
      <point x="340.0" y="977.3571428571429" type="line"/>
      <point x="340.0" y="945.0357142857143"/>
      <point x="365.0" y="926.3928571428571"/>
      <point x="376.0" y="926.3928571428571" type="qcurve" smooth="yes"/>
      <point x="399.82142857142856" y="926.3928571428571"/>
      <point x="408.0" y="948.9107142857143"/>
      <point x="408.0" y="961.8214285714286" type="qcurve" smooth="yes"/>
      <point x="408.0" y="978.5892857142857"/>
      <point x="376.14285714285717" y="1000.2321428571429"/>
      <point x="320.0" y="999.9642857142858" type="qcurve" smooth="yes"/>
      <point x="226.0" y="999.9642857142858" type="line"/>
      <point x="226.0" y="1176.625" type="line"/>
      <point x="300.0" y="1176.625" type="line" smooth="yes"/>
      <point x="355.0892857142857" y="1176.625"/>
      <point x="387.0" y="1196.857142857143"/>
      <point x="387.0" y="1222.0357142857142" type="qcurve" smooth="yes"/>
      <point x="387.0" y="1235.2857142857142"/>
      <point x="378.67857142857144" y="1242.9285714285713"/>
      <point x="361.0" y="1242.9285714285713" type="qcurve" smooth="yes"/>
      <point x="348.0" y="1242.9285714285713"/>
      <point x="333.0" y="1230.2857142857142"/>
      <point x="333.0" y="1199.9642857142858" type="qcurve"/>
      <point x="45.0" y="1199.9642857142858" type="line"/>
      <point x="45.0" y="1360.9285714285713"/>
      <point x="254.0" y="1487.0"/>
      <point x="390.0" y="1487.0" type="qcurve" smooth="yes"/>
      <point x="538.0" y="1487.0"/>
      <point x="716.0" y="1382.0"/>
      <point x="716.0" y="1273.0" type="qcurve" smooth="yes"/>
      <point x="716.0" y="1212.0"/>
      <point x="633.0" y="1120.0"/>
      <point x="573.0" y="1098.0" type="qcurve"/>
      <point x="652.0" y="1079.0"/>
      <point x="737.0" y="993.0"/>
      <point x="737.0" y="935.5714285714286" type="qcurve" smooth="yes"/>
      <point x="737.0" y="817.0"/>
      <point x="563.0" y="686.0"/>
      <point x="401.0" y="686.0" type="qcurve" smooth="yes"/>
      <point x="244.35714285714286" y="686.0"/>
      <point x="23.0" y="809.0535714285714"/>
    </contour>
  </outline>
</glyph>
<glyph name="cedilla" format="2">
  <advance width="1024"/>
  <unicode hex="00B8"/>
  <outline>
    <contour>
      <point x="440.0" y="42.0" type="line"/>
      <point x="569.0" y="42.0" type="line"/>
      <point x="542.875" y="-47.375" type="line"/>
      <point x="599.875" y="-57.375"/>
      <point x="724.2678571428571" y="-135.25"/>
      <point x="724.0" y="-226.0" type="qcurve" smooth="yes"/>
      <point x="723.7321428571429" y="-319.0"/>
      <point x="550.0" y="-435.0"/>
      <point x="348.0" y="-435.0" type="qcurve"/>
      <point x="341.0" y="-313.26785714285717" type="line"/>
      <point x="463.0" y="-313.26785714285717"/>
      <point x="542.0" y="-274.30357142857144"/>
      <point x="542.0" y="-230.14285714285714" type="qcurve" smooth="yes"/>
      <point x="542.0" y="-189.44642857142858"/>
      <point x="483.0" y="-158.875"/>
      <point x="399.0" y="-152.94642857142856" type="qcurve"/>
    </contour>
  </outline>
</glyph>
<glyph name="onesuperior" format="2">
  <advance width="751"/>
  <unicode hex="00B9"/>
  <outline>
    <contour>
      <point x="53.0" y="1021.8392857142858" type="line"/>
      <point x="53.0" y="1390.0" type="line"/>
      <point x="387.0" y="1486.0" type="line"/>
      <point x="601.0" y="1486.0" type="line"/>
      <point x="601.0" y="697.0" type="line"/>
      <point x="239.0" y="697.0" type="line"/>
      <point x="239.0" y="1066.8392857142858" type="line"/>
    </contour>
  </outline>
</glyph>
<glyph name="OE" format="2">
  <advance width="1879"/>
  <unicode hex="0152"/>
  <anchor x="963.0" y="1603.0" name="top"/>
  <anchor x="963.0" y="0" name="bottom"/>
  <anchor x="1963.0" y="1600.0" name="top_dd"/>
  <anchor x="1963.0" y="-407.0" name="bottom_dd"/>
  <anchor x="1963.0" y="1603.0" name="top0315"/>
  <anchor x="963.0" y="1603.0" name="parent_top"/>
  <outline>
    <contour>
      <point x="713.0" y="1477.0" type="qcurve" smooth="yes"/>
      <point x="746.0" y="1477.0"/>
      <point x="897.0" y="1464.0"/>
      <point x="964.0" y="1456.0" type="qcurve"/>
      <point x="1801.0" y="1456.0" type="line"/>
      <point x="1801.0" y="1267.4642857142858" type="line"/>
      <point x="1079.0" y="1267.4642857142858" type="line"/>
      <point x="1079.0" y="844.4642857142857" type="line"/>
      <point x="1709.0" y="844.4642857142857" type="line"/>
      <point x="1709.0" y="657.7321428571429" type="line"/>
      <point x="1079.0" y="657.7321428571429" type="line"/>
      <point x="1079.0" y="187.0" type="line"/>
      <point x="1811.0" y="187.0" type="line"/>
      <point x="1811.0" y="0.0" type="line"/>
      <point x="964.0" y="0.0" type="line"/>
      <point x="897.0" y="-7.0"/>
      <point x="748.0" y="-21.0"/>
      <point x="672.0" y="-21.0" type="qcurve" smooth="yes"/>
      <point x="458.0" y="-21.0"/>
      <point x="115.0" y="340.0"/>
      <point x="115.0" y="682.0" type="qcurve" smooth="yes"/>
      <point x="115.0" y="772.0" type="line" smooth="yes"/>
      <point x="115.0" y="1105.0"/>
      <point x="455.0" y="1477.0"/>
    </contour>
    <contour>
      <point x="310.0" y="686.0178571428571" type="line" smooth="yes"/>
      <point x="310.0" y="435.67857142857144"/>
      <point x="543.0" y="160.67857142857144"/>
      <point x="715.0" y="160.67857142857144" type="qcurve" smooth="yes"/>
      <point x="768.0" y="160.67857142857144"/>
      <point x="848.0" y="169.14285714285714"/>
      <point x="886.0" y="175.14285714285714" type="qcurve"/>
      <point x="886.0" y="1281.3392857142858" type="line"/>
      <point x="834.0" y="1287.8035714285713"/>
      <point x="739.0" y="1295.5357142857142"/>
      <point x="717.0" y="1295.5357142857142" type="qcurve" smooth="yes"/>
      <point x="540.0" y="1295.5357142857142"/>
      <point x="310.0" y="1015.8035714285714"/>
      <point x="310.0" y="772.9285714285714" type="qcurve" smooth="yes"/>
    </contour>
  </outline>
</glyph>
<glyph name="oe" format="2">
  <advance width="1861"/>
  <unicode hex="0153"/>
  <anchor x="945.0" y="1290.0" name="top"/>
  <anchor x="945.0" y="-1.0" name="bottom"/>
  <anchor x="1860.0" y="1600.0" name="top_dd"/>
  <anchor x="1860.0" y="-407.0" name="bottom_dd"/>
  <anchor x="1860.0" y="1290.0" name="top0315"/>
  <anchor x="945.0" y="1290.0" name="parent_top"/>
  <outline>
    <contour>
      <point x="275.0" y="540.6607142857143" type="qcurve" smooth="yes"/>
      <point x="275.0" y="511.07142857142856" type="line" smooth="yes"/>
      <point x="275.0" y="360.92857142857144"/>
      <point x="429.0" y="153.60714285714286"/>
      <point x="581.0" y="153.60714285714286" type="qcurve" smooth="yes"/>
      <point x="733.0" y="153.60714285714286"/>
      <point x="887.0" y="360.19642857142856"/>
      <point x="887.0" y="511.07142857142856" type="qcurve" smooth="yes"/>
      <point x="887.0" y="540.6607142857143" type="line" smooth="yes"/>
      <point x="887.0" y="691.8035714285714"/>
      <point x="733.0" y="898.125"/>
      <point x="581.0" y="898.125" type="qcurve" smooth="yes"/>
      <point x="429.0" y="898.125"/>
      <point x="275.0" y="690.8035714285714"/>
    </contour>
    <contour>
      <point x="977.0" y="866.0" type="qcurve"/>
      <point x="997.0" y="926.0"/>
      <point x="1212.0" y="1082.0"/>
      <point x="1390.0" y="1082.0" type="qcurve" smooth="yes"/>
      <point x="1577.0" y="1082.0"/>
      <point x="1809.0" y="800.0"/>
      <point x="1809.0" y="560.0" type="qcurve" smooth="yes"/>
      <point x="1809.0" y="467.92857142857144" type="line"/>
      <point x="1000.0" y="467.92857142857144" type="line"/>
      <point x="1000.0" y="640.0357142857143" type="line"/>
      <point x="1621.0" y="640.0357142857143" type="line"/>
      <point x="1622.0" y="661.3571428571429" type="line"/>
      <point x="1621.267857142857" y="758.75"/>
      <point x="1492.0" y="903.2142857142857"/>
      <point x="1370.0" y="903.2142857142857" type="qcurve" smooth="yes"/>
      <point x="1222.0" y="903.2142857142857"/>
      <point x="1076.0" y="695.2857142857143"/>
      <point x="1076.0" y="542.0" type="qcurve" smooth="yes"/>
      <point x="1076.0" y="510.0" type="line" smooth="yes"/>
      <point x="1076.0" y="356.7142857142857"/>
      <point x="1220.0" y="148.78571428571428"/>
      <point x="1382.0" y="148.78571428571428" type="qcurve" smooth="yes"/>
      <point x="1482.0" y="148.78571428571428"/>
      <point x="1634.6607142857142" y="222.32142857142858"/>
      <point x="1681.0" y="270.0" type="qcurve"/>
      <point x="1801.0" y="175.0" type="line"/>
      <point x="1751.0" y="100.0"/>
      <point x="1542.0" y="-30.0"/>
      <point x="1413.0" y="-30.0" type="qcurve" smooth="yes"/>
      <point x="1216.0" y="-30.0"/>
      <point x="1009.0" y="110.0"/>
      <point x="979.0" y="185.0" type="qcurve"/>
      <point x="949.0" y="111.0"/>
      <point x="746.0" y="-30.0"/>
      <point x="551.0" y="-30.0" type="qcurve" smooth="yes"/>
      <point x="355.0" y="-30.0"/>
      <point x="85.0" y="272.0"/>
      <point x="85.0" y="510.0" type="qcurve" smooth="yes"/>
      <point x="85.0" y="542.0" type="line" smooth="yes"/>
      <point x="85.0" y="780.0"/>
      <point x="354.0" y="1081.0"/>
      <point x="569.0" y="1081.0" type="qcurve" smooth="yes"/>
      <point x="755.0" y="1081.0"/>
      <point x="957.0" y="921.0"/>
    </contour>
  </outline>
</glyph>
<glyph name="Schwa" format="2">
  <advance width="1446"/>
  <unicode hex="018F"/>
  <outline>
    <contour>
      <point x="64.0" y="1199.0" type="line"/>
      <point x="162.0" y="1356.0"/>
      <point x="452.0" y="1519.0"/>
      <point x="669.0" y="1519.0" type="qcurve" smooth="yes"/>
      <point x="1002.0" y="1519.0"/>
      <point x="1366.0" y="1094.0"/>
      <point x="1366.0" y="789.0" type="qcurve" smooth="yes"/>
      <point x="1366.0" y="445.0"/>
      <point x="982.0" y="-30.0"/>
      <point x="692.0" y="-30.0" type="qcurve" smooth="yes"/>
      <point x="416.0" y="-30.0"/>
      <point x="102.0" y="281.0"/>
      <point x="102.0" y="578.0" type="qcurve" smooth="yes"/>
      <point x="102.0" y="699.3928571428571" type="line"/>
      <point x="1228.0" y="699.3928571428571" type="line"/>
      <point x="1228.0" y="540.6071428571429" type="line"/>
      <point x="665.0" y="548.6071428571429" type="line"/>
      <point x="298.0" y="542.6071428571429" type="line"/>
      <point x="298.0" y="481.0" type="line" smooth="yes"/>
      <point x="298.0" y="323.0357142857143"/>
      <point x="503.0" y="123.78571428571428"/>
      <point x="702.0" y="123.78571428571428" type="qcurve" smooth="yes"/>
      <point x="912.0" y="123.78571428571428"/>
      <point x="1177.0" y="462.0"/>
      <point x="1175.0" y="749.0" type="qcurve" smooth="yes"/>
      <point x="1173.0" y="1035.75"/>
      <point x="863.2142857142857" y="1350.625"/>
      <point x="662.5178571428571" y="1350.625" type="qcurve" smooth="yes"/>
      <point x="489.625" y="1350.625"/>
      <point x="248.26785714285714" y="1209.625"/>
      <point x="187.26785714285714" y="1101.625" type="qcurve"/>
    </contour>
  </outline>
</glyph>
<glyph name="emdash" format="2">
  <advance width="2048"/>
  <unicode hex="2014"/>
  <outline>
    <contour>
      <point x="260.0" y="518.6071428571429" type="line"/>
      <point x="260.0" y="713.3928571428571" type="line"/>
      <point x="1788.0" y="713.3928571428571" type="line"/>
      <point x="1788.0" y="518.6071428571429" type="line"/>
    </contour>
  </outline>
</glyph>
<glyph name="quoteright" format="2">
  <advance width="410"/>
  <unicode hex="2019"/>
  <outline>
    <contour>
      <point x="318.0" y="1458.0" type="line"/>
      <point x="318.0" y="1330.0" type="line" smooth="yes"/>
      <point x="318.0" y="1240.0"/>
      <point x="228.875" y="1034.392857142857"/>
      <point x="146.875" y="966.3928571428571" type="qcurve"/>
      <point x="31.76785714285714" y="1048.232142857143" type="line"/>
      <point x="80.91071428571429" y="1111.017857142857"/>
      <point x="134.0" y="1246.0"/>
      <point x="134.0" y="1327.0" type="qcurve" smooth="yes"/>
      <point x="134.0" y="1458.0" type="line"/>
    </contour>
  </outline>
</glyph>
<glyph name="quotedblbase" format="2">
  <advance width="830"/>
  <unicode hex="201E"/>
  <outline>
    <contour>
      <point x="318.0" y="220.0" type="line"/>
      <point x="318.0" y="92.0" type="line" smooth="yes"/>
      <point x="318.0" y="2.0"/>
      <point x="227.0" y="-202.0"/>
      <point x="145.0" y="-270.0" type="qcurve"/>
      <point x="30.42857142857143" y="-190.03571428571428" type="line"/>
      <point x="80.64285714285714" y="-126.44642857142857"/>
      <point x="134.0" y="8.0"/>
      <point x="134.0" y="89.0" type="qcurve" smooth="yes"/>
      <point x="134.0" y="220.0" type="line"/>
    </contour>
    <contour>
      <point x="738.0" y="220.0" type="line"/>
      <point x="738.0" y="92.0" type="line" smooth="yes"/>
      <point x="738.0" y="2.0"/>
      <point x="647.0" y="-202.0"/>
      <point x="565.0" y="-270.0" type="qcurve"/>
      <point x="450.42857142857144" y="-190.03571428571428" type="line"/>
      <point x="500.64285714285717" y="-126.44642857142857"/>
      <point x="554.0" y="8.0"/>
      <point x="554.0" y="89.0" type="qcurve" smooth="yes"/>
      <point x="554.0" y="220.0" type="line"/>
    </contour>
  </outline>
</glyph>
<glyph name="franc" format="2">
  <advance width="1024"/>
  <unicode hex="20A3"/>
  <outline>
    <contour>
      <point x="180.0" y="0.0" type="line"/>
      <point x="180.0" y="1456.0" type="line"/>
      <point x="1002.0" y="1456.0" type="line"/>
      <point x="1002.0" y="1271.2142857142858" type="line"/>
      <point x="372.0" y="1271.2142857142858" type="line"/>
      <point x="372.0" y="869.0357142857143" type="line"/>
      <point x="913.0" y="869.0357142857143" type="line"/>
      <point x="913.0" y="684.25" type="line"/>
      <point x="372.0" y="684.25" type="line"/>
      <point x="372.0" y="0.0" type="line"/>
    </contour>
    <contour>
      <point x="20.0" y="269.2142857142857" type="line"/>
      <point x="20.0" y="454.0" type="line"/>
      <point x="725.0" y="454.0" type="line"/>
      <point x="725.0" y="269.2142857142857" type="line"/>
    </contour>
  </outline>
</glyph>
